<svg xmlns="http://www.w3.org/2000/svg" viewBox="0 0 62.31 53.4">
  <style>
    @media (prefers-color-scheme: light) {
      g#codeimage_logo {
        fill: black;
      }
    }
    @media (prefers-color-scheme: dark) {
      g#codeimage_logo {
        fill: white;
      }
    }
  </style>
  <g id="codeimage_logo">
    <path id="codeimage_logo-2" data-name="codeimage_logo" class="cls-1"
          d="M51,0H11.34A11.34,11.34,0,0,0,0,11.34V42.07A11.34,11.34,0,0,0,11.34,53.4H51A11.34,11.34,0,0,0,62.31,42.07V11.34A11.34,11.34,0,0,0,51,0ZM10.47,29.58l5.76-5.75a2.23,2.23,0,0,0,0-3.15l-5.76-5.76a2.23,2.23,0,0,1,0-3.14l1.31-1.31a2.23,2.23,0,0,1,3.14,0L25.13,20.68a2.23,2.23,0,0,1,0,3.15L14.92,34a2.22,2.22,0,0,1-3.14,0l-1.31-1.3A2.25,2.25,0,0,1,10.47,29.58Zm31.81,6H28.93a2.22,2.22,0,0,1-2.23-2.22h0a2.23,2.23,0,0,1,2.23-2.23H42.28a2.22,2.22,0,0,1,2.22,2.23h0A2.21,2.21,0,0,1,42.28,35.6Z"/>
  </g>
</svg>
